<svg xmlns="http://www.w3.org/2000/svg" width="36" height="36" viewBox="0 0 36 36">
  <g fill="none">
    <circle cx="18" cy="18" r="17.281" fill="#2DAAE1"/>
    <path fill="#FFFFFF" d="M28.20456,9.67824 C27.34848,10.17864 26.3988,10.54224 25.38936,10.73808 C24.58224,9.88992 23.43024,9.36 22.15512,9.36 C19.70856,9.36 17.72424,11.31336 17.72424,13.72248 C17.72424,14.06448 17.76384,14.3964 17.838,14.71608 C14.1552,14.53392 10.89,12.79728 8.70408,10.15848 C8.3232,10.80216 8.1036,11.55168 8.1036,12.3516 C8.1036,13.86432 8.88768,15.19992 10.07568,15.98184 C9.34992,15.9588 8.66592,15.76296 8.06832,15.4368 C8.06832,15.4548 8.06832,15.47352 8.06832,15.49152 C8.06832,17.60472 9.59616,19.368 11.62368,19.76976 C11.25144,19.86912 10.86048,19.9224 10.45512,19.9224 C10.17,19.9224 9.8928,19.89504 9.62136,19.84392 C10.18656,21.57624 11.8224,22.8384 13.76136,22.87368 C12.24432,24.04368 10.33416,24.74136 8.25696,24.74136 C7.8984,24.74136 7.54704,24.72048 7.19928,24.68016 C9.16128,25.91784 11.49192,26.64 13.9932,26.64 C22.14504,26.64 26.60184,19.99368 26.60184,14.22864 C26.60184,14.04 26.59896,13.85064 26.59032,13.66416 C27.45504,13.04928 28.20744,12.28104 28.80072,11.40552 C28.00656,11.75328 27.15264,11.98656 26.25552,12.0924 C27.17136,11.5524 27.87264,10.69776 28.20456,9.67824 Z"/>
    <circle cx="18" cy="18" r="17.281" fill="#2DAAE1"/>
    <path fill="#FFFFFF" d="M28.20456,9.67824 C27.34848,10.17864 26.3988,10.54224 25.38936,10.73808 C24.58224,9.88992 23.43024,9.36 22.15512,9.36 C19.70856,9.36 17.72424,11.31336 17.72424,13.72248 C17.72424,14.06448 17.76384,14.3964 17.838,14.71608 C14.1552,14.53392 10.89,12.79728 8.70408,10.15848 C8.3232,10.80216 8.1036,11.55168 8.1036,12.3516 C8.1036,13.86432 8.88768,15.19992 10.07568,15.98184 C9.34992,15.9588 8.66592,15.76296 8.06832,15.4368 C8.06832,15.4548 8.06832,15.47352 8.06832,15.49152 C8.06832,17.60472 9.59616,19.368 11.62368,19.76976 C11.25144,19.86912 10.86048,19.9224 10.45512,19.9224 C10.17,19.9224 9.8928,19.89504 9.62136,19.84392 C10.18656,21.57624 11.8224,22.8384 13.76136,22.87368 C12.24432,24.04368 10.33416,24.74136 8.25696,24.74136 C7.8984,24.74136 7.54704,24.72048 7.19928,24.68016 C9.16128,25.91784 11.49192,26.64 13.9932,26.64 C22.14504,26.64 26.60184,19.99368 26.60184,14.22864 C26.60184,14.04 26.59896,13.85064 26.59032,13.66416 C27.45504,13.04928 28.20744,12.28104 28.80072,11.40552 C28.00656,11.75328 27.15264,11.98656 26.25552,12.0924 C27.17136,11.5524 27.87264,10.69776 28.20456,9.67824 Z"/>
    <circle cx="18" cy="18" r="17.281" fill="#2DAAE1"/>
    <path fill="#FFFFFF" d="M28.20456,9.67824 C27.34848,10.17864 26.3988,10.54224 25.38936,10.73808 C24.58224,9.88992 23.43024,9.36 22.15512,9.36 C19.70856,9.36 17.72424,11.31336 17.72424,13.72248 C17.72424,14.06448 17.76384,14.3964 17.838,14.71608 C14.1552,14.53392 10.89,12.79728 8.70408,10.15848 C8.3232,10.80216 8.1036,11.55168 8.1036,12.3516 C8.1036,13.86432 8.88768,15.19992 10.07568,15.98184 C9.34992,15.9588 8.66592,15.76296 8.06832,15.4368 C8.06832,15.4548 8.06832,15.47352 8.06832,15.49152 C8.06832,17.60472 9.59616,19.368 11.62368,19.76976 C11.25144,19.86912 10.86048,19.9224 10.45512,19.9224 C10.17,19.9224 9.8928,19.89504 9.62136,19.84392 C10.18656,21.57624 11.8224,22.8384 13.76136,22.87368 C12.24432,24.04368 10.33416,24.74136 8.25696,24.74136 C7.8984,24.74136 7.54704,24.72048 7.19928,24.68016 C9.16128,25.91784 11.49192,26.64 13.9932,26.64 C22.14504,26.64 26.60184,19.99368 26.60184,14.22864 C26.60184,14.04 26.59896,13.85064 26.59032,13.66416 C27.45504,13.04928 28.20744,12.28104 28.80072,11.40552 C28.00656,11.75328 27.15264,11.98656 26.25552,12.0924 C27.17136,11.5524 27.87264,10.69776 28.20456,9.67824 Z"/>
  </g>
</svg>
